<?xml version="1.0" encoding="UTF-8"?>
<svg id="Layer_2" data-name="Layer 2" xmlns="http://www.w3.org/2000/svg" viewBox="0 0 1028.16 1028.16">
  <defs>
    <style>
      .cls-1 {
        fill: #caca78;
      }
    </style>
  </defs>
  <path class="cls-1" d="m176.75,453.08s30.33-14.33,58.5-18.83c0,0,25.67-2.83,35.83-3s31-13.17,31-13.17c0,0,23.67-18,27-44.33v-20.67s4.67-32.83,27.33-48.5,37.5-15.17,37.5-15.17l23.83,1.17s1.17-5-3.5-9.17-34.17-34.5-80-50.17c0,0-2.83-8,14.17-32.5s40-41.5,40-41.5c0,0,22.17-15.83,41-22.5,0,0,8.33-8.33,0-15.83s-21.33-1.83-21.33-1.83c0,0-62.67,18.33-95.5,44.67,0,0-41.67,30.5-67.83,67.5,0,0,20,40,1,69.83s-33,33.67-33,33.67c0,0-6.67,6.33-30.5,9.67,0,0-19.33,19.67-22.17,56.17s10.67,54.5,10.67,54.5h6Z"/>
  <circle class="cls-1" cx="177.08" cy="266.08" r="62"/>
  <path class="cls-1" d="m367.59,220.52s30.12,14.78,51.19,34c0,0,18.22,18.3,24.68,26.15,6.47,7.85,29.62,16.03,29.62,16.03,0,0,28.83,7.28,51.5-6.53l16.16-12.88s28.58-16.82,54.96-8.86,35.24,19.87,35.24,19.87l13.95,19.36s4.64-2.2,4.99-8.45,5.68-48.22-10.65-93.83c0,0,4.49-7.2,34.24-9.18,29.75-1.98,57.38,5.41,57.38,5.41,0,0,26.2,7.46,43.15,18.03,0,0,11.71,1.32,12.38-9.87s-11.87-17.82-11.87-17.82c0,0-53.4-37.57-94.46-46.83,0,0-49.82-13.57-95.07-10.96,0,0-18.81,40.57-53.98,44.32s-46.9-4.82-46.9-4.82c0,0-9.11-1.26-26.57-17.82,0,0-27.43-2.86-57.74,17.68-30.31,20.54-35.96,42.32-35.96,42.32l3.74,4.69Z"/>
  <circle class="cls-1" cx="514.08" cy="105.08" r="62"/>
  <path class="cls-1" d="m670.09,219.97s6.87,32.84,4.68,61.28c0,0-3.23,25.62-5.44,35.55-2.21,9.93,5.58,33.22,5.58,33.22,0,0,11.99,27.21,36.82,36.59l20.1,4.82s30.84,12.19,40.79,37.89c9.95,25.69,6.01,40,6.01,40l-6.69,22.9s4.59,2.3,9.73-1.27,41.51-25.18,67.43-66.1c0,0,8.44-.89,28.3,21.35,19.86,22.24,31.03,48.57,31.03,48.57,0,0,10.23,25.25,12.32,45.12,0,0,6.16,10.05,15.4,3.69,9.24-6.36,6.76-20.32,6.76-20.32,0,0-3.22-65.21-21.18-103.28,0,0-19.95-47.63-49.83-81.7,0,0-43.56,10.13-68.14-15.31-24.58-25.43-25.05-39.94-25.05-39.94,0,0-4.6-7.96-2.29-31.91,0,0-14.62-23.38-49.45-34.65-34.83-11.26-55.49-2.33-55.49-2.33l-1.4,5.83Z"/>
  <circle class="cls-1" cx="852.08" cy="264.08" r="61.99"/>
  <path class="cls-1" d="m854.65,460.61s-21.2,26-44.68,42.2c0,0-21.94,13.62-31.04,18.15-9.1,4.53-22.3,25.24-22.3,25.24,0,0-13.6,26.44-5.27,51.64l8.9,18.65s9.93,31.64-3.77,55.54c-13.71,23.9-27.31,29.84-27.31,29.84l-22.01,9.22s1.1,5.01,7.11,6.76c6.01,1.75,45.7,16.41,93.81,10.8,0,0,6,6,1.22,35.43-4.79,29.43-18.22,54.68-18.22,54.68,0,0-13.18,23.84-27.31,37.97,0,0-3.93,11.11,6.82,14.29,10.75,3.18,20.04-7.54,20.04-7.54,0,0,48.65-43.54,66.94-81.45,0,0,24.46-45.48,32.13-90.14,0,0-35.28-27.48-30.99-62.59,4.29-35.11,15.28-44.6,15.28-44.6,0,0,3.29-8.59,23.36-21.86,0,0,8.97-26.08-4.19-60.24-13.17-34.16-33.11-44.59-33.11-44.59l-5.41,2.59Z"/>
  <circle class="cls-1" cx="934.08" cy="630.08" r="61.99"/>
  <path class="cls-1" d="m786.2,752.17s-33.55-.12-60.91-8.17c0,0-24.39-8.49-33.64-12.71-9.25-4.22-33.65-1.46-33.65-1.46,0,0-29.11,6.06-43.45,28.4l-8.89,18.66s-18.34,27.63-45.54,32.02c-27.2,4.39-40.38-2.45-40.38-2.45l-21.01-11.31s-3.2,4.01-.79,9.78c2.42,5.77,15.99,45.85,50.62,79.71,0,0-.89,8.44-26.77,23.24-25.89,14.8-53.97,20.25-53.97,20.25,0,0-26.82,4.75-46.69,2.67,0,0-11.11,3.94-6.81,14.29,4.29,10.36,18.47,10.84,18.47,10.84,0,0,64.46,10.42,105.43.78,0,0,50.74-9.6,90.28-31.74,0,0-.84-44.71,29.15-63.47,29.99-18.75,44.28-16.19,44.28-16.19,0,0,8.74-2.85,31.69,4.4,0,0,25.91-9.43,44.18-41.16,18.26-31.73,13.83-53.79,13.83-53.79l-5.42-2.58Z"/>
  <circle class="cls-1" cx="705.08" cy="921.08" r="61.99"/>
  <path class="cls-1" d="m511.06,880.59s-20.89-26.25-31.71-52.64c0,0-8.63-24.34-11.11-34.2-2.49-9.86-19.91-27.17-19.91-27.17,0,0-22.93-18.92-49.33-16.15l-20.12,4.73s-33.03,2.96-53.46-15.52c-20.43-18.48-23.34-33.04-23.34-33.04l-4.31-23.47s-5.13,0-8.12,5.5-25.77,41.15-30.55,89.35c0,0-7.14,4.59-34.88-6.36-27.74-10.95-49.55-29.45-49.55-29.45,0,0-20.48-17.96-31.28-34.77,0,0-10.02-6.21-15.41,3.62-5.4,9.83,3.09,21.19,3.09,21.19,0,0,32.18,56.82,65.32,82.76,0,0,39.22,33.59,81.22,50.6,0,0,34.37-28.62,67.76-16.94,33.39,11.68,40.32,24.43,40.32,24.43,0,0,7.69,5.04,16.38,27.48,0,0,23.57,14.32,59.75,8.74,36.18-5.59,50.62-22.84,50.62-22.84l-1.37-5.84Z"/>
  <circle class="cls-1" cx="329.08" cy="922.08" r="61.99"/>
  <path class="cls-1" d="m237.56,746.59s7.84-32.62,21.99-57.39c0,0,13.88-21.78,20.12-29.8,6.24-8.03,9.17-32.41,9.17-32.41,0,0,.81-29.72-17.62-48.83l-16.1-12.95s-22.66-24.22-20.66-51.7c2-27.48,11.69-38.73,11.69-38.73l15.85-17.84s-3.16-4.04-9.34-3.02-48.3,5-89.23,30.89c0,0-8.01-2.81-16.45-31.41-8.44-28.6-7.27-57.18-7.27-57.18,0,0,1.56-27.2,8.17-46.05,0,0-1.27-11.72-12.34-9.92-11.07,1.79-14.8,15.47-14.8,15.47,0,0-24.99,60.32-25.05,102.41,0,0-2.35,51.58,10.08,95.16,0,0,43.7,9.49,55.04,42.99,11.34,33.5,5.55,46.81,5.55,46.81,0,0,.76,9.16-11.58,29.82,0,0,3.21,27.39,29.87,52.48,26.67,25.08,49.15,25.85,49.15,25.85l3.76-4.68Z"/>
  <circle class="cls-1" cx="92.08" cy="629.08" r="62"/>
</svg>