<?xml version="1.0" encoding="UTF-8"?>
<svg xmlns="http://www.w3.org/2000/svg" viewBox="0 0 864 864">
  <defs>
    <style>
      .uuid-d9d2965b-0b26-4e2c-af09-3caf8443f79e {
        fill: #9ec1cf;
      }

      .uuid-e6d9ff7f-0118-402a-b43c-ae35a27f2ae5 {
        fill: #feb144;
      }

      .uuid-e40bb479-d462-4da4-bc14-7ea12e4407e2 {
        fill: #cc99c9;
      }

      .uuid-96fbe65d-47ed-47fe-ae80-ceaecd0befe4 {
        fill: #9ee09e;
      }

      .uuid-e8c25985-a58c-4181-97f2-3aae7db0a7e8 {
        fill: #ff6663;
      }

      .uuid-22cd6df0-4099-48e4-bc8b-fd537ee41177 {
        fill: #fdfd97;
      }
    </style>
  </defs>
  <g id="uuid-05557a41-3a8e-4e22-b42f-179214e422c9" data-name="Layer 3">
    <path class="uuid-e8c25985-a58c-4181-97f2-3aae7db0a7e8" d="m175.31,15.97l10.66,97.12c1.25,6.45,7.26,11.15,14.28,11.15h473.33c9.83,0,16.85-8.96,13.82-17.69-11.11-31.98-44.58-96.94-134.78-106.01-.53-.05-1.07-.08-1.6-.08L189.61,0c-9.05-.01-15.9,7.64-14.29,15.97Z"/>
  </g>
  <g id="uuid-137a257a-96a4-4803-97be-477d6ceefca5" data-name="Layer 5">
    <path class="uuid-e6d9ff7f-0118-402a-b43c-ae35a27f2ae5" d="m204.59,147.53h484.03c7.08,0,13.09,4.81,14.19,11.34,3.25,19.36,8.26,60.69,1,101.98-1.14,6.48-7.14,11.24-14.17,11.24h-147.05c-8.25,0-14.84-6.46-14.38-14.15.78-12.94.21-32.39-7.71-48.13-12.07-24-37.34-22.95-41.22-22.64-.4.03-.8.05-1.2.05l-97.24-.26c-7.95-.02-14.4,5.99-14.4,13.42v58.3c0,7.41-6.43,13.42-14.36,13.42h-142.62c-7.25,0-13.36-5.05-14.25-11.76l-4.88-97.73c-.14-7.54,5.62-15.07,14.25-15.07Z"/>
  </g>
  <g id="uuid-0ac55ada-a248-4599-8f24-50d63b10bcd5" data-name="Layer 6">
    <path class="uuid-22cd6df0-4099-48e4-bc8b-fd537ee41177" d="m697.39,311.28c-7.9,24.97-29.12,72.48-79.47,91.07-1.24.46-2.07,1.57-2.07,2.81h0c0,1.32.91,2.49,2.26,2.89,3.56,1.05,10.86,3.49,18.69,7.7,1.85.99,1.08,3.64-1.05,3.64H210.88c-7.23,0-13.09-5.47-13.09-12.23l-2.03-98.99c0-7.06,6.12-12.79,13.67-12.8l143.22-.26c7.44-.01,13.5,5.6,13.56,12.55l.13,16.51c.05,6.92,6.08,12.51,13.49,12.5l110.01-.17s17.47,0,27.85-18.26c.04-.08.09-.16.15-.23.56-.81,4.06-6.05,6.61-13.79,1.72-5.23,6.86-8.82,12.71-8.82h147.49c8.85,0,15.25,7.95,12.74,15.89Z"/>
  </g>
  <g id="uuid-14676917-a702-4c09-9897-0ccd06fc371c" data-name="Layer 7">
    <path class="uuid-96fbe65d-47ed-47fe-ae80-ceaecd0befe4" d="m211.49,442.69h427.43c2.76,0,5.45.78,7.73,2.23,10.9,6.96,43.1,30.26,58.32,71.29,0,0,6.49,15.46,10.51,36.26,1.51,7.82-4.98,14.99-13.49,14.99h-148.55c-6.65,0-12.34-4.46-13.48-10.59-1.51-8.1-4.63-19.42-11.04-28.72,0,0-8.59-13.89-31.67-13.89l-117.13-.13c-7.57,0-13.71,5.73-13.71,12.8l.02,27.72c0,7.07-6.12,12.8-13.69,12.8h-143.28c-7.56,0-13.69-5.73-13.69-12.79l2.03-99.19c0-7.06,6.13-12.79,13.69-12.79Z"/>
  </g>
  <g id="uuid-bcdcdfde-d7a7-4f96-a6c1-31f5faca5351" data-name="Layer 10">
    <path class="uuid-e40bb479-d462-4da4-bc14-7ea12e4407e2" d="m683.23,737.65l-483.48.1c-6.73,0-12.49,4.5-13.69,10.69l-9.87,98.25c-1.54,7.98,5.02,15.32,13.7,15.31l365.19-.21c.34,0,.67-.01,1.01-.03,6.93-.49,79.61-6.86,115.32-62.03,0,0,15.19-21.62,24.75-44.27,3.61-8.54-3.11-17.8-12.94-17.8Z"/>
  </g>
  <g id="uuid-156f8a15-330b-4ddf-8294-eea54bb1a741" data-name="Layer 9">
    <path class="uuid-d9d2965b-0b26-4e2c-af09-3caf8443f79e" d="m718.69,601.59c1.51,21.81,3.44,69.46-5.22,102.39-1.47,5.59-6.84,9.51-13,9.51l-497.99.1c-8.05,0-14.28-6.59-13.28-14.06l7.12-98.66c.84-6.27,6.55-10.97,13.31-10.96l143.18.26c7.36.01,13.33,5.58,13.36,12.46l.21,49.14c.03,6.88,6,12.45,13.36,12.46l121.33.17c.65,0,1.28-.04,1.92-.13,4.65-.63,22.1-4.09,30.53-21.34.11-.22.22-.44.35-.65,1.03-1.67,7.12-12.71,7.59-40.03.12-6.85,6.06-12.37,13.4-12.37h150.47c7.06,0,12.9,5.11,13.36,11.69Z"/>
  </g>
</svg>