<?xml version="1.0" encoding="UTF-8"?>
<svg xmlns="http://www.w3.org/2000/svg" viewBox="0 0 1972.44 497.61">
  <g id="Layer_3" data-name="Layer 3">
    <path d="m364.14,295.33s-13-30-36-43-26-12-26-12v-3s27-8,46-37c0,0,16-24,18-63,0,0,4-40-11-72,0,0-14-36-51-55,0,0-15.89-10.64-52.44-10.32s-40.78,0-40.78,0H0v496.6h262.47s44.67,2.72,78.67-34.28,34-87,34-87c0,0,3-46-11-80ZM125.14,108.32h88.86s3.78-.33,11.13,4.45c7.35,4.78,12.26,20.67,12.26,20.67,0,0,4.7,25.67-2.35,42.11-7.05,16.44-19.81,17.78-19.81,17.78h-90.08v-85.01Zm115.58,261.34c-8.25,12.08-21.25,11.67-21.25,11.67h-94.67v-85.45s82,.2,88.92.03c6.92-.17,10.17.33,10.17.33,0,0,8.83,1.5,15.33,9s8.5,18.42,8.5,18.42c1.92,7.67.92,23.33.92,23.33,0,0,.33,10.58-7.92,22.67Z" style="fill: #ff6663;"/>
  </g>
  <g id="Layer_4" data-name="Layer 4">
    <path d="m425.14,138.33h92.44v205.22s-.44,49.78,24.56,59.78,40,1,40,1c0,0,19-9,25-39,0,0,1-17,1-34v-193h93.22l-.22,221s1,36-18,75-65,55-65,55c0,0-28.22,11.65-72.11,7.32s-60.89-18.32-60.89-18.32c0,0-26-14-38-37s-14-30-14-30c0,0-8-22-9-56l1-217Z" style="fill: #feb144;"/>
  </g>
  <g id="Layer_5" data-name="Layer 5">
    <path d="m751.19,496.6V136.99c-.06.33,79.06,0,79.06,0l118.38,177.19v-177.19h83.15v359.61h-78.98l-119.67-175.28,1.21,175.28h-83.15Z" style="fill: #fdfd97;"/>
  </g>
  <g id="Layer_6" data-name="Layer 6">
    <path d="m1353.36,264.22c-2.89-27.33-20.89-63.78-20.89-63.78-13.33-27.11-42-43.78-42-43.78-31.33-22.22-88.67-19.67-88.67-19.67h-114.89v359.61s88,.05,118.89,0c30.89-.06,54.22-6.39,54.22-6.39,0,0,55.11-16.89,75.33-62.22,20.22-45.33,19.56-75.33,19.56-75.33,6.22-37.56-1.56-88.44-1.56-88.44Zm-91.14,95.53s-2.33,21.25-16.25,36c-13.92,14.75-34.83,14.5-34.83,14.5h-33.58l-.42-187.25h33.92c14.25,1,21.67,5.25,21.67,5.25,17.67,8.75,23.58,25.75,23.58,25.75,9.58,18.67,8,58.25,8,58.25,1.58,20.5-2.08,47.5-2.08,47.5Z" style="fill: #9ee09e;"/>
  </g>
  <g id="Layer_7" data-name="Layer 7">
    <polygon points="1642.21 136.99 1398.48 136.99 1398.48 496.6 1645.08 496.6 1645.08 410.36 1489.14 410.33 1489.14 355.33 1620.09 355.48 1620.14 273.33 1489.14 273.33 1489.14 223.33 1642.21 223.24 1642.21 136.99" style="fill: #9ec1cf;"/>
  </g>
  <g id="Layer_8" data-name="Layer 8">
    <polygon points="1691.84 496.6 1691.84 136.99 1770.9 136.99 1889.28 314.19 1889.28 136.99 1972.44 136.99 1972.44 496.6 1893.08 496.6 1774.74 321.33 1775 496.6 1691.84 496.6" style="fill: #cc99c9;"/>
  </g>
</svg>