<?xml version="1.0" encoding="UTF-8"?>
<svg xmlns="http://www.w3.org/2000/svg" viewBox="0 0 864 864.5">
  <defs>
    <style>
      .cls-1 {
        fill: #a37aa0;
      }
    </style>
  </defs>
  <g id="Layer_3" data-name="Layer 3">
    <path class="cls-1" d="m175.31,16.46l10.66,97.12c1.25,6.45,7.26,11.15,14.28,11.15h473.33c9.83,0,16.85-8.96,13.82-17.69-11.11-31.98-44.58-96.94-134.78-106.01-.53-.05-1.07-.08-1.6-.08L189.61.5c-9.05-.01-15.9,7.64-14.29,15.97Z"/>
  </g>
  <g id="Layer_5" data-name="Layer 5">
    <path class="cls-1" d="m204.59,148.03h484.03c7.08,0,13.09,4.81,14.19,11.34,3.25,19.36,8.26,60.69,1,101.98-1.14,6.48-7.14,11.24-14.17,11.24h-147.05c-8.25,0-14.84-6.46-14.38-14.15.78-12.94.21-32.39-7.71-48.13-12.07-24-37.34-22.95-41.22-22.64-.4.03-.8.05-1.2.05l-97.24-.26c-7.95-.02-14.4,5.99-14.4,13.42v58.3c0,7.41-6.43,13.42-14.36,13.42h-142.62c-7.25,0-13.36-5.05-14.25-11.76l-4.88-97.73c-.14-7.54,5.62-15.07,14.25-15.07Z"/>
  </g>
  <g id="Layer_6" data-name="Layer 6">
    <path class="cls-1" d="m697.39,311.78c-7.9,24.97-29.12,72.48-79.47,91.07-1.24.46-2.07,1.57-2.07,2.81h0c0,1.32.91,2.49,2.26,2.89,3.56,1.05,10.86,3.49,18.69,7.7,1.85.99,1.08,3.64-1.05,3.64H210.88c-7.23,0-13.09-5.47-13.09-12.23l-2.03-98.99c0-7.06,6.12-12.79,13.67-12.8l143.22-.26c7.44-.01,13.5,5.6,13.56,12.55l.13,16.51c.05,6.92,6.08,12.51,13.49,12.5l110.01-.17s17.47,0,27.85-18.26c.04-.08.09-.16.15-.23.56-.81,4.06-6.05,6.61-13.79,1.72-5.23,6.86-8.82,12.71-8.82h147.49c8.85,0,15.25,7.95,12.74,15.89Z"/>
  </g>
  <g id="Layer_7" data-name="Layer 7">
    <path class="cls-1" d="m211.49,443.19h427.43c2.76,0,5.45.78,7.73,2.23,10.9,6.96,43.1,30.26,58.32,71.29,0,0,6.49,15.46,10.51,36.26,1.51,7.82-4.98,14.99-13.49,14.99h-148.55c-6.65,0-12.34-4.46-13.48-10.59-1.51-8.1-4.63-19.42-11.04-28.72,0,0-8.59-13.89-31.67-13.89l-117.13-.13c-7.57,0-13.71,5.73-13.71,12.8l.02,27.72c0,7.07-6.12,12.8-13.69,12.8h-143.28c-7.56,0-13.69-5.73-13.69-12.79l2.03-99.19c0-7.06,6.13-12.79,13.69-12.79Z"/>
  </g>
  <g id="Layer_10" data-name="Layer 10">
    <path class="cls-1" d="m683.23,738.15l-483.48.1c-6.73,0-12.49,4.5-13.69,10.69l-9.87,98.25c-1.54,7.98,5.02,15.32,13.7,15.31l365.19-.21c.34,0,.67-.01,1.01-.03,6.93-.49,79.61-6.86,115.32-62.03,0,0,15.19-21.62,24.75-44.27,3.61-8.54-3.11-17.8-12.94-17.8Z"/>
  </g>
  <g id="Layer_9" data-name="Layer 9">
    <path class="cls-1" d="m718.69,602.08c1.51,21.81,3.44,69.46-5.22,102.39-1.47,5.59-6.84,9.51-13,9.51l-497.99.1c-8.05,0-14.28-6.59-13.28-14.06l7.12-98.66c.84-6.27,6.55-10.97,13.31-10.96l143.18.26c7.36.01,13.33,5.58,13.36,12.46l.21,49.14c.03,6.88,6,12.45,13.36,12.46l121.33.17c.65,0,1.28-.04,1.92-.13,4.65-.63,22.1-4.09,30.53-21.34.11-.22.22-.44.35-.65,1.03-1.67,7.12-12.71,7.59-40.03.12-6.85,6.06-12.37,13.4-12.37h150.47c7.06,0,12.9,5.11,13.36,11.69Z"/>
  </g>
</svg>